<svg width="62" height="55" viewBox="0 0 62 55" fill="none" xmlns="http://www.w3.org/2000/svg">
<path d="M24.256 54.912C20.8 54.912 17.5787 54.3573 14.592 53.248C11.648 52.096 9.088 50.4747 6.912 48.384C4.736 46.2933 3.02933 43.84 1.792 41.024C0.597333 38.208 0 35.1147 0 31.744C0 28.3733 0.597333 25.28 1.792 22.464C3.02933 19.648 4.736 17.1947 6.912 15.104C9.13067 13.0133 11.712 11.4133 14.656 10.304C17.6 9.152 20.8213 8.576 24.32 8.576C28.2027 8.576 31.7013 9.25867 34.816 10.624C37.9733 11.9467 40.6187 13.9093 42.752 16.512L36.096 22.656C34.56 20.9067 32.8533 19.6053 30.976 18.752C29.0987 17.856 27.0507 17.408 24.832 17.408C22.7413 17.408 20.8213 17.7493 19.072 18.432C17.3227 19.1147 15.808 20.096 14.528 21.376C13.248 22.656 12.2453 24.1707 11.52 25.92C10.8373 27.6693 10.496 29.6107 10.496 31.744C10.496 33.8773 10.8373 35.8187 11.52 37.568C12.2453 39.3173 13.248 40.832 14.528 42.112C15.808 43.392 17.3227 44.3733 19.072 45.056C20.8213 45.7387 22.7413 46.08 24.832 46.08C27.0507 46.08 29.0987 45.6533 30.976 44.8C32.8533 43.904 34.56 42.56 36.096 40.768L42.752 46.912C40.6187 49.5147 37.9733 51.4987 34.816 52.864C31.7013 54.2294 28.1813 54.912 24.256 54.912Z" fill="#613E5F"/>
<path d="M41.6857 -3.8147e-06H32.6618L28.0538 8.448H32.6618H41.1098C44.3098 8.448 46.6991 9.13067 48.2778 10.496C49.8564 11.8613 50.6457 13.7813 50.6457 16.256C50.6457 18.688 49.8564 20.608 48.2778 22.016C46.6991 23.3813 44.3098 24.064 41.1098 24.064H32.6618H23.4584L20.4584 29.1199L18.4584 32.3168L32.6618 32.32H41.6857C41.8491 32.32 42.0116 32.3189 42.1731 32.3168L50.7737 44.8H61.9738L51.9659 30.4385C51.9952 30.4257 52.0245 30.4129 52.0538 30.4C54.9551 29.12 57.1951 27.2853 58.7738 24.896C60.3524 22.464 61.1418 19.584 61.1418 16.256C61.1418 12.8853 60.3524 9.984 58.7738 7.552C57.1951 5.12 54.9551 3.264 52.0538 1.984C49.1524 0.66133 45.6964 -3.8147e-06 41.6857 -3.8147e-06Z" fill="#FF6FB9"/>
</svg>
