<svg width="62" height="56" viewBox="0 0 62 56" fill="none" xmlns="http://www.w3.org/2000/svg">
<path d="M24.256 55.336C20.8 55.336 17.5787 54.7814 14.592 53.672C11.648 52.52 9.088 50.8987 6.912 48.808C4.736 46.7174 3.02933 44.264 1.792 41.448C0.597333 38.632 0 35.5387 0 32.168C0 28.7974 0.597333 25.704 1.792 22.888C3.02933 20.072 4.736 17.6187 6.912 15.528C9.13067 13.4374 11.712 11.8374 14.656 10.728C17.6 9.57603 20.8213 9.00003 24.32 9.00003C28.2027 9.00003 31.7013 9.68269 34.816 11.048C37.9733 12.3707 40.6187 14.3334 42.752 16.936L36.096 23.08C34.56 21.3307 32.8533 20.0294 30.976 19.176C29.0987 18.28 27.0507 17.832 24.832 17.832C22.7413 17.832 20.8213 18.1734 19.072 18.856C17.3227 19.5387 15.808 20.52 14.528 21.8C13.248 23.08 12.2453 24.5947 11.52 26.344C10.8373 28.0934 10.496 30.0347 10.496 32.168C10.496 34.3014 10.8373 36.2427 11.52 37.992C12.2453 39.7414 13.248 41.256 14.528 42.536C15.808 43.816 17.3227 44.7974 19.072 45.48C20.8213 46.1627 22.7413 46.504 24.832 46.504C27.0507 46.504 29.0987 46.0774 30.976 45.224C32.8533 44.328 34.56 42.984 36.096 41.192L42.752 47.336C40.6187 49.9387 37.9733 51.9227 34.816 53.288C31.7013 54.6534 28.1813 55.336 24.256 55.336Z" fill="#FF8181"/>
<path d="M41.6857 0.424023H32.6618L28.0538 8.87203H32.6618H41.1098C44.3098 8.87203 46.6991 9.5547 48.2778 10.92C49.8564 12.2854 50.6457 14.2053 50.6457 16.68C50.6457 19.112 49.8564 21.032 48.2778 22.44C46.6991 23.8054 44.3098 24.488 41.1098 24.488H32.6618H23.4584L20.4584 29.5439L18.4584 32.7408L32.6618 32.744H41.6857C41.8491 32.744 42.0116 32.743 42.1731 32.7408L50.7737 45.224H61.9738L51.9659 30.8625C51.9952 30.8497 52.0245 30.8369 52.0538 30.824C54.9551 29.544 57.1951 27.7093 58.7738 25.32C60.3524 22.888 61.1418 20.008 61.1418 16.68C61.1418 13.3093 60.3524 10.408 58.7738 7.97603C57.1951 5.54402 54.9551 3.68802 52.0538 2.40802C49.1524 1.08536 45.6964 0.424023 41.6857 0.424023Z" fill="#FF6060"/>
</svg>
