<svg width="114" height="165" viewBox="0 0 114 165" fill="none" xmlns="http://www.w3.org/2000/svg">
<g clip-path="url(#clip0_26_280)">
<path fill-rule="evenodd" clip-rule="evenodd" d="M21.5671 5.5607C17.3659 2.3827 11.3393 5.37765 11.3393 10.6435L11.3393 51.3219L11.3393 54.8632V124.628C11.3393 144.578 27.7743 160.75 48.048 160.75H66.7622C87.0359 160.75 103.471 144.578 103.471 124.628V54.8632V52.4647V11.7059C103.471 6.44007 97.4444 3.44512 93.2432 6.62311L75.7737 19.8382C72.8904 19.1222 69.8715 18.7412 66.7622 18.7412H48.048C45.3224 18.7412 42.6662 19.0337 40.11 19.5882L21.5671 5.5607ZM95.8094 10.0116C97.2098 8.95225 99.2187 9.95059 99.2187 11.7059V37.9733C95.2187 30.5458 88.6631 24.6556 80.7045 21.4377L95.8094 10.0116ZM15.5915 10.6435C15.5915 8.88818 17.6004 7.88984 19.0008 8.94921L35.0328 21.0774C26.6566 24.2035 19.7458 30.2593 15.5915 37.9733V10.6435Z" fill="#613E5F"/>
<path d="M7.08878 10.4384C7.24251 1.85794 17.0299 -3.006 23.9686 2.05016L24.1333 2.17224L41.1696 15.0599C43.4084 14.6864 45.7066 14.4917 48.048 14.4917H66.7622C69.5005 14.4917 72.1792 14.7584 74.7725 15.2656L90.6769 3.23465L90.8416 3.11257C97.8354 -1.98372 107.723 2.99825 107.723 11.7059V124.628L107.72 125.152C107.435 147.267 89.1457 165 66.7622 165H48.048C25.6646 165 7.37499 147.267 7.09051 125.152L7.08705 124.628V10.6435L7.08878 10.4384ZM21.5671 5.5607C17.3659 2.3827 11.3393 5.37765 11.3393 10.6435V124.628C11.3393 144.578 27.7743 160.75 48.048 160.75H66.7622C87.0359 160.75 103.471 144.578 103.471 124.628V11.7059C103.471 6.44007 97.4444 3.44512 93.2432 6.62311L75.7737 19.8382C72.8904 19.1222 69.8715 18.7412 66.7622 18.7412H48.048C45.3224 18.7412 42.6662 19.0337 40.11 19.5882L21.5671 5.5607ZM15.5915 10.6435C15.5915 8.88818 17.6004 7.88984 19.0008 8.94921L35.0328 21.0774C26.6566 24.2035 19.7458 30.2593 15.5915 37.9733V10.6435ZM95.8094 10.0116C97.2098 8.95225 99.2187 9.95059 99.2187 11.7059V37.9733C95.2187 30.5458 88.6631 24.6556 80.7045 21.4377L95.8094 10.0116ZM19.8437 25.5872C21.9947 23.5735 24.3667 21.788 26.9204 20.2699L19.8437 14.9163V25.5872ZM88.667 20.744C90.9259 22.1555 93.0354 23.779 94.9665 25.5868V15.9791L88.667 20.744Z" fill="#F7F7F7"/>
<path d="M23.0329 45.9443C23.0329 41.482 27.1518 37.8647 32.2401 37.8647C41.866 37.8647 55.7992 37.8647 57.4051 37.8647C59.011 37.8647 72.9442 37.8647 82.5701 37.8647C87.6584 37.8647 91.7773 41.482 91.7773 45.9443V68.3461C91.7773 71.1595 90.1085 73.7703 87.3719 75.2384L62.2129 88.7355C59.2619 90.3186 55.5483 90.3186 52.5974 88.7355L27.4383 75.2384C24.7017 73.7703 23.0329 71.1595 23.0329 68.3461V45.9443Z" fill="#FF6060"/>
<path d="M90.0055 45.9445C90.0055 42.669 86.9028 39.6353 82.57 39.6353H32.2402C27.9074 39.6353 24.8047 42.669 24.8047 45.9445V68.3461C24.8047 70.4283 26.0417 72.4794 28.2762 73.6782L53.4353 87.1755L53.6647 87.2938C56.055 88.4766 59.0232 88.4372 61.375 87.1755L86.534 73.6782L86.7406 73.5634C88.8447 72.3512 90.0055 70.3633 90.0055 68.3461V45.9445ZM93.5491 68.3461C93.5491 71.7797 91.5779 74.8627 88.5103 76.6316L88.2099 76.7987L63.0509 90.2956C59.6309 92.1304 55.3693 92.1591 51.923 90.3818L51.7593 90.2956L26.6003 76.7987C23.3617 75.0612 21.2612 71.8905 21.2612 68.3461V45.9445C21.2612 40.2953 26.3964 36.094 32.2402 36.094H82.57C88.4138 36.094 93.5491 40.2953 93.5491 45.9445V68.3461Z" fill="black"/>
<path d="M56.7289 74.6206C56.8251 74.6305 56.9221 74.6305 57.0183 74.6206L60.3415 74.2798C61.8159 74.1286 62.5041 76.0549 61.2672 76.8711L57.6546 79.255C57.1809 79.5676 56.5663 79.5676 56.0925 79.255L52.4799 76.871C51.2431 76.0548 51.9312 74.1286 53.4057 74.2798L56.7289 74.6206Z" fill="black"/>
<path d="M70.1618 60.48C70.1618 65.7335 77.6235 58.3662 83.5774 58.3662C89.5312 58.3662 92.2018 75.2768 91.7227 60.48C91.7227 55.2265 86.8961 50.9677 80.9422 50.9677C74.9884 50.9677 70.1618 55.2265 70.1618 60.48Z" fill="black"/>
<path d="M70.1618 61.4148C70.1618 66.5978 73.4934 70.7994 77.6032 70.7994C81.713 70.7994 85.0446 66.5978 85.0446 61.4148C85.0446 56.2318 81.713 52.0302 77.6032 52.0302C73.4934 52.0302 70.1618 56.2318 70.1618 61.4148Z" fill="black"/>
<path d="M75.1227 61.5919C75.1227 63.1565 76.2333 64.425 77.6032 64.425C78.9731 64.425 80.0837 63.1565 80.0837 61.5919C80.0837 60.0272 78.9731 58.7588 77.6032 58.7588C76.2333 58.7588 75.1227 60.0272 75.1227 61.5919Z" fill="white"/>
<path d="M73.1379 54.0415C68.8154 57.0416 65.8943 65.9677 66.3308 65.6647C66.7674 65.3617 72.4136 58.4771 74.856 56.5139C76.0137 55.5834 78.6702 54.4594 81.1446 53.5344C82.2429 53.1239 82.0152 51.6987 80.8474 51.8035C78.1907 52.0419 75.1584 52.6391 73.1379 54.0415Z" fill="black"/>
<path d="M44.6484 60.48C44.6484 65.7335 37.1867 58.3662 31.2329 58.3662C25.279 58.3662 22.6084 75.2768 23.0875 60.48C23.0875 55.2265 27.9141 50.9677 33.868 50.9677C39.8218 50.9677 44.6484 55.2265 44.6484 60.48Z" fill="black"/>
<path d="M44.6484 61.4148C44.6484 66.5978 41.3168 70.7994 37.207 70.7994C33.0972 70.7994 29.7656 66.5978 29.7656 61.4148C29.7656 56.2318 33.0972 52.0302 37.207 52.0302C41.3168 52.0302 44.6484 56.2318 44.6484 61.4148Z" fill="black"/>
<path d="M39.6875 61.5919C39.6875 63.1565 38.5769 64.425 37.207 64.425C35.8371 64.425 34.7266 63.1565 34.7266 61.5919C34.7266 60.0272 35.8371 58.7588 37.207 58.7588C38.5769 58.7588 39.6875 60.0272 39.6875 61.5919Z" fill="white"/>
<path d="M41.6723 54.0415C45.9948 57.0416 48.916 65.9677 48.4794 65.6647C48.0428 65.3617 42.3967 58.4771 39.9542 56.5139C38.7966 55.5834 36.1401 54.4594 33.6656 53.5344C32.5674 53.1239 32.795 51.6987 33.9629 51.8035C36.6195 52.0419 39.6518 52.6391 41.6723 54.0415Z" fill="black"/>
<path d="M39.6875 33.8171C39.6875 32.3364 40.8885 31.1361 42.3701 31.1361C43.8517 31.1361 45.0528 32.3364 45.0528 33.8171V41.5581C45.0528 43.0388 43.8517 44.2391 42.3701 44.2391C40.8885 44.2391 39.6875 43.0388 39.6875 41.5581V33.8171Z" fill="#613E5F"/>
<path d="M69.4031 33.8171C69.4031 32.3364 70.6041 31.1361 72.0857 31.1361C73.5673 31.1361 74.7684 32.3364 74.7684 33.8171V41.5581C74.7684 43.0388 73.5673 44.2391 72.0857 44.2391C70.6041 44.2391 69.4031 43.0388 69.4031 41.5581V33.8171Z" fill="#613E5F"/>
<path d="M38.9788 78.7675C38.9788 80.6256 28.9493 82.1318 25.3314 82.1318C21.7135 82.1318 18.7807 80.6256 18.7807 78.7675C18.7807 76.9095 21.7135 75.4032 25.3314 75.4032C28.9493 75.4032 38.9788 76.9095 38.9788 78.7675Z" fill="#613E5F"/>
<path d="M38.9788 78.7675C38.9788 80.6256 28.9493 82.1318 25.3314 82.1318C21.7135 82.1318 18.7807 80.6256 18.7807 78.7675C18.7807 76.9095 21.7135 75.4032 25.3314 75.4032C28.9493 75.4032 38.9788 76.9095 38.9788 78.7675Z" fill="#613E5F"/>
<path d="M75.4771 78.7675C75.4771 80.6256 85.5066 82.1318 89.1245 82.1318C92.7423 82.1318 95.6752 80.6256 95.6752 78.7675C95.6752 76.9095 92.7423 75.4032 89.1245 75.4032C85.5066 75.4032 75.4771 76.9095 75.4771 78.7675Z" fill="#613E5F"/>
<path d="M75.4771 78.7675C75.4771 80.6256 85.5066 82.1318 89.1245 82.1318C92.7423 82.1318 95.6752 80.6256 95.6752 78.7675C95.6752 76.9095 92.7423 75.4032 89.1245 75.4032C85.5066 75.4032 75.4771 76.9095 75.4771 78.7675Z" fill="#613E5F"/>
<path d="M18.5403 69.6738C19.5955 71.2036 12.1933 78.1327 9.21465 80.1848C6.23595 82.2369 2.96582 82.6604 1.91062 81.1306C0.855413 79.6008 2.41471 76.6971 5.39341 74.645C8.37211 72.5928 17.4851 68.1441 18.5403 69.6738Z" fill="#613E5F"/>
<path d="M18.5403 69.6738C19.5955 71.2036 12.1933 78.1327 9.21465 80.1848C6.23595 82.2369 2.96582 82.6604 1.91062 81.1306C0.855413 79.6008 2.41471 76.6971 5.39341 74.645C8.37211 72.5928 17.4851 68.1441 18.5403 69.6738Z" fill="#613E5F"/>
<path d="M20.1981 70.6224C20.1981 72.4804 10.1686 73.9867 6.55073 73.9867C2.93286 73.9867 0 72.4804 0 70.6224C0 68.7643 2.93286 67.258 6.55073 67.258C10.1686 67.258 20.1981 68.7643 20.1981 70.6224Z" fill="#613E5F"/>
<path d="M20.1981 70.6224C20.1981 72.4804 10.1686 73.9867 6.55073 73.9867C2.93286 73.9867 0 72.4804 0 70.6224C0 68.7643 2.93286 67.258 6.55073 67.258C10.1686 67.258 20.1981 68.7643 20.1981 70.6224Z" fill="#613E5F"/>
<path d="M95.4597 69.6738C94.4045 71.2036 101.807 78.1327 104.785 80.1848C107.764 82.2369 111.034 82.6604 112.089 81.1306C113.145 79.6008 111.585 76.6971 108.607 74.645C105.628 72.5928 96.5149 68.1441 95.4597 69.6738Z" fill="#613E5F"/>
<path d="M95.4597 69.6738C94.4045 71.2036 101.807 78.1327 104.785 80.1848C107.764 82.2369 111.034 82.6604 112.089 81.1306C113.145 79.6008 111.585 76.6971 108.607 74.645C105.628 72.5928 96.5149 68.1441 95.4597 69.6738Z" fill="#613E5F"/>
<path d="M93.8019 70.6224C93.8019 72.4804 103.831 73.9867 107.449 73.9867C111.067 73.9867 114 72.4804 114 70.6224C114 68.7643 111.067 67.258 107.449 67.258C103.831 67.258 93.8019 68.7643 93.8019 70.6224Z" fill="#613E5F"/>
<path d="M93.8019 70.6224C93.8019 72.4804 103.831 73.9867 107.449 73.9867C111.067 73.9867 114 72.4804 114 70.6224C114 68.7643 111.067 67.258 107.449 67.258C103.831 67.258 93.8019 68.7643 93.8019 70.6224Z" fill="#613E5F"/>
</g>
<defs>
<clipPath id="clip0_26_280">
<rect width="114" height="165" fill="white" transform="matrix(-1 0 0 1 114 0)"/>
</clipPath>
</defs>
</svg>
