<svg xmlns="http://www.w3.org/2000/svg" style="display: none;">
  <symbol id="icon-clean-code" viewBox="0 0 24 24" fill="none" stroke="currentColor" stroke-width="2" stroke-linecap="round" stroke-linejoin="round">
    <path d="M12 2L2 7l10 5 10-5-10-5z"></path>
    <path d="M2 17l10 5 10-5"></path>
    <path d="M2 12l10 5 10-5"></path>
  </symbol>
  <symbol id="icon-scalable" viewBox="0 0 24 24" fill="none" stroke="currentColor" stroke-width="2" stroke-linecap="round" stroke-linejoin="round">
    <path d="M4 15s1-1 4-1 5 2 8 2 4-1 4-1V3s-1 1-4 1-5-2-8-2-4 1-4 1z"></path>
    <line x1="4" y1="22" x2="4" y2="15"></line>
  </symbol>
  <symbol id="icon-performance" viewBox="0 0 24 24" fill="none" stroke="currentColor" stroke-width="2" stroke-linecap="round" stroke-linejoin="round">
    <polyline points="13 17 18 12 13 7"></polyline>
    <polyline points="6 17 11 12 6 7"></polyline>
  </symbol>
  <symbol id="icon-learning" viewBox="0 0 24 24" fill="none" stroke="currentColor" stroke-width="2" stroke-linecap="round" stroke-linejoin="round">
    <path d="M16 4h2a2 2 0 0 1 2 2v14a2 2 0 0 1-2 2H6a2 2 0 0 1-2-2V6a2 2 0 0 1 2-2h2"></path>
    <rect x="8" y="2" width="8" height="4" rx="1" ry="1"></rect>
  </symbol>
</svg> 