<svg width="0" height="0" class="hidden">
  <symbol xmlns="http://www.w3.org/2000/svg" viewBox="0 0 24 24" id="email">
    <path stroke="none" d="M0 0h24v24H0z" fill="none" />
    <path
      d="M22 7.535v9.465a3 3 0 0 1 -2.824 2.995l-.176 .005h-14a3 3 0 0 1 -2.995 -2.824l-.005 -.176v-9.465l9.445 6.297l.116 .066a1 1 0 0 0 .878 0l.116 -.066l9.445 -6.297z" />
    <path
      d="M19 4c1.08 0 2.027 .57 2.555 1.427l-9.555 6.37l-9.555 -6.37a2.999 2.999 0 0 1 2.354 -1.42l.201 -.007h14z" />
  </symbol>
  <symbol xmlns="http://www.w3.org/2000/svg" viewBox="0 0 24 24" id="github">
    <path
      d="M12 0c-6.626 0-12 5.373-12 12 0 5.302 3.438 9.8 8.207 11.387.599.111.793-.261.793-.577v-2.234c-3.338.726-4.033-1.416-4.033-1.416-.546-1.387-1.333-1.756-1.333-1.756-1.089-.745.083-.729.083-.729 1.205.084 1.839 1.237 1.839 1.237 1.07 1.834 2.807 1.304 3.492.997.107-.775.418-1.305.762-1.604-2.665-.305-5.467-1.334-5.467-5.931 0-1.311.469-2.381 1.236-3.221-.124-.303-.535-1.524.117-3.176 0 0 1.008-.322 3.301 1.23.957-.266 1.983-.399 3.003-.404 1.02.005 2.047.138 3.006.404 2.291-1.552 3.297-1.23 3.297-1.23.653 1.653.242 2.874.118 3.176.77.84 1.235 1.911 1.235 3.221 0 4.609-2.807 5.624-5.479 5.921.43.372.823 1.102.823 2.222v3.293c0 .319.192.694.801.576 4.765-1.589 8.199-6.086 8.199-11.386 0-6.627-5.373-12-12-12z">
    </path>
  </symbol>
  <symbol xmlns="http://www.w3.org/2000/svg" viewBox="0 0 24 24" id="linkedin">
    <path
      d="M19 0h-14c-2.761 0-5 2.239-5 5v14c0 2.761 2.239 5 5 5h14c2.762 0 5-2.239 5-5v-14c0-2.761-2.238-5-5-5zm-11 19h-3v-11h3v11zm-1.5-12.268c-.966 0-1.75-.79-1.75-1.764s.784-1.764 1.75-1.764 1.75.79 1.75 1.764-.783 1.764-1.75 1.764zm13.5 12.268h-3v-5.604c0-3.368-4-3.113-4 0v5.604h-3v-11h3v1.765c1.396-2.586 7-2.777 7 2.476v6.759z">
    </path>
  </symbol>
  <symbol xmlns="http://www.w3.org/2000/svg" viewBox="0 0 24 24" id="location">
    <path
      d="M12 2c3.196 0 6 2.618 6 5.602 0 3.093-2.493 7.132-6 12.661-3.507-5.529-6-9.568-6-12.661 0-2.984 2.804-5.602 6-5.602m0-2c-4.198 0-8 3.403-8 7.602 0 4.198 3.469 9.21 8 16.398 4.531-7.188 8-12.2 8-16.398 0-4.199-3.801-7.602-8-7.602zm0 11c-1.657 0-3-1.343-3-3s1.343-3 3-3 3 1.343 3 3-1.343 3-3 3z">
    </path>
  </symbol>
  <symbol xmlns="http://www.w3.org/2000/svg" viewBox="0 0 16 16" id="twitter">
    <path
      d="M12.6.75h2.454l-5.36 6.142L16 15.25h-4.937l-3.867-5.07-4.425 5.07H.316l5.733-6.57L0 .75h5.063l3.495 4.633L12.601.75Zm-.86 13.028h1.36L4.323 2.145H2.865z" />
  </symbol>
  <symbol xmlns="http://www.w3.org/2000/svg" viewBox="0 -960 960 960" id="timezone">
    <path
      d="M396-396q-32-32-58.5-67T289-537q-5 14-6.5 28.5T281-480q0 83 58 141t141 58q14 0 28.5-2t28.5-6q-39-22-74-48.5T396-396Zm57-56q51 51 114 87.5T702-308q-40 51-98 79.5T481-200q-117 0-198.5-81.5T201-480q0-65 28.5-123t79.5-98q20 72 56.5 135T453-452Zm290 72q-20-5-39.5-11T665-405q8-18 11.5-36.5T680-480q0-83-58.5-141.5T480-680q-20 0-38.5 3.5T405-665q-8-19-13.5-38T381-742q24-9 49-13.5t51-4.5q117 0 198.5 81.5T761-480q0 26-4.5 51T743-380ZM440-840v-120h80v120h-80Zm0 840v-120h80V0h-80Zm323-706-57-57 85-84 57 56-85 85ZM169-113l-57-56 85-85 57 57-85 84Zm671-327v-80h120v80H840ZM0-440v-80h120v80H0Zm791 328-85-85 57-57 84 85-56 57ZM197-706l-84-85 56-57 85 85-57 57Zm199 310Z" />
  </symbol>
  <symbol xmlns="http://www.w3.org/2000/svg" viewBox="0 0 24 24" id="reddit">
    <path
      d="M14.238 15.348c.085.084.085.221 0 .306-.465.462-1.194.687-2.231.687l-.008-.002-.008.002c-1.036 0-1.766-.225-2.231-.688-.085-.084-.085-.221 0-.305.084-.084.222-.084.307 0 .379.377 1.008.561 1.924.561l.008.002.008-.002c.915 0 1.544-.184 1.924-.561.085-.084.223-.084.307 0zm-3.44-2.418c0-.507-.414-.919-.922-.919-.509 0-.923.412-.923.919 0 .506.414.918.923.918.508.001.922-.411.922-.918zm13.202-.93c0 6.627-5.373 12-12 12s-12-5.373-12-12 5.373-12 12-12 12 5.373 12 12zm-5-.129c0-.851-.695-1.543-1.55-1.543-.417 0-.795.167-1.074.435-1.056-.695-2.485-1.137-4.066-1.194l.865-2.724 2.343.549-.003.034c0 .696.569 1.262 1.268 1.262.699 0 1.267-.566 1.267-1.262s-.568-1.262-1.267-1.262c-.537 0-.994.335-1.179.804l-2.525-.592c-.11-.027-.223.037-.257.145l-.965 3.038c-1.656.02-3.155.466-4.258 1.181-.277-.255-.644-.415-1.05-.415-.854.001-1.549.693-1.549 1.544 0 .566.311 1.056.768 1.325-.03.164-.05.331-.05.5 0 2.281 2.805 4.137 6.253 4.137s6.253-1.856 6.253-4.137c0-.16-.017-.317-.044-.472.486-.261.82-.766.82-1.353zm-4.872.141c-.509 0-.922.412-.922.919 0 .506.414.918.922.918s.922-.412.922-.918c0-.507-.413-.919-.922-.919z" />
  </symbol>
</svg>