<svg width="102" height="185" viewBox="0 0 102 185" fill="none" xmlns="http://www.w3.org/2000/svg">
<path d="M101.286 134.53V50.6327C101.286 22.7287 78.7408 0.183685 50.8367 0.183685C22.9327 0.183685 0.387756 22.7287 0.387756 50.6327V134.53C0.387756 162.434 22.9327 184.978 50.8367 184.978C78.7408 184.978 101.286 162.434 101.286 134.53ZM94.4483 134.53C94.4483 158.738 74.8601 178.326 50.8367 178.326C26.8134 178.326 7.22516 158.738 7.22516 134.53V50.6327C7.22516 26.4245 26.8134 6.8363 50.8367 6.8363C74.8601 6.8363 94.4483 26.6093 94.4483 50.6327V134.53ZM71.5338 51.0023C70.6098 51.7414 69.3162 51.7414 68.577 51.0023L52.3151 34.5555C51.3911 33.8163 50.2824 33.8163 49.3584 34.5555L33.0964 51.0023C32.1725 51.7414 31.0637 51.7414 30.1397 51.0023L25.3351 46.1976C24.5959 45.4584 24.5959 44.1648 25.3351 43.2409L49.3584 19.4023C50.2824 18.4784 51.3911 18.4784 52.3151 19.4023L76.1536 43.2409C77.0776 44.1648 77.0776 45.4584 76.1536 46.1976L71.5338 51.0023Z" fill="black"/>
</svg>
